<svg width="500" height="514" viewBox="0 14 500 514" fill="none" xmlns="http://www.w3.org/2000/svg">
<rect y="14" width="500" height="500" rx="50" fill="black"/>
<g filter="url(#filter0_ii)">
<path d="M319.874 288.852V354H106.862V97.8H315.116V162.948H191.774V192.96H300.11V255.18H191.774V288.852H319.874Z" fill="#EB0028"/>
</g>
<path d="M319.874 288.852H320.874V287.852H319.874V288.852ZM319.874 354V355H320.874V354H319.874ZM106.862 354H105.862V355H106.862V354ZM106.862 97.8V96.8H105.862V97.8H106.862ZM315.116 97.8H316.116V96.8H315.116V97.8ZM315.116 162.948V163.948H316.116V162.948H315.116ZM191.774 162.948V161.948H190.774V162.948H191.774ZM191.774 192.96H190.774V193.96H191.774V192.96ZM300.11 192.96H301.11V191.96H300.11V192.96ZM300.11 255.18V256.18H301.11V255.18H300.11ZM191.774 255.18V254.18H190.774V255.18H191.774ZM191.774 288.852H190.774V289.852H191.774V288.852ZM318.874 288.852V354H320.874V288.852H318.874ZM319.874 353H106.862V355H319.874V353ZM107.862 354V97.8H105.862V354H107.862ZM106.862 98.8H315.116V96.8H106.862V98.8ZM314.116 97.8V162.948H316.116V97.8H314.116ZM315.116 161.948H191.774V163.948H315.116V161.948ZM190.774 162.948V192.96H192.774V162.948H190.774ZM191.774 193.96H300.11V191.96H191.774V193.96ZM299.11 192.96V255.18H301.11V192.96H299.11ZM300.11 254.18H191.774V256.18H300.11V254.18ZM190.774 255.18V288.852H192.774V255.18H190.774ZM191.774 289.852H319.874V287.852H191.774V289.852Z" fill="url(#paint0_linear)"/>
<g filter="url(#filter1_d)">
<path d="M295.9 443.6C276.767 443.6 259.383 440.567 243.75 434.5C228.35 428.2 215.633 419.1 205.6 407.2L250.05 354.7C256.583 362.867 263 368.933 269.3 372.9C275.6 376.867 282.133 378.85 288.9 378.85C297.533 378.85 304.067 376.283 308.5 371.15C313.167 366.017 315.5 358.433 315.5 348.4V255.3H232.2V193H397.05V343.5C397.05 376.867 388.417 401.95 371.15 418.75C354.117 435.317 329.033 443.6 295.9 443.6Z" fill="#EB0028"/>
<path d="M243.75 434.5L243.371 435.426L243.38 435.429L243.388 435.432L243.75 434.5ZM205.6 407.2L204.837 406.554L204.291 407.199L204.835 407.845L205.6 407.2ZM250.05 354.7L250.831 354.075L250.072 353.127L249.287 354.054L250.05 354.7ZM269.3 372.9L268.767 373.746L268.767 373.746L269.3 372.9ZM308.5 371.15L307.76 370.477L307.752 370.487L307.743 370.496L308.5 371.15ZM315.5 255.3H316.5V254.3H315.5V255.3ZM232.2 255.3H231.2V256.3H232.2V255.3ZM232.2 193V192H231.2V193H232.2ZM397.05 193H398.05V192H397.05V193ZM371.15 418.75L371.847 419.467L371.847 419.467L371.15 418.75ZM295.9 442.6C276.873 442.6 259.615 439.584 244.112 433.568L243.388 435.432C259.152 441.55 276.66 444.6 295.9 444.6V442.6ZM244.129 433.574C228.867 427.331 216.287 418.324 206.365 406.555L204.835 407.845C214.98 419.876 227.833 429.069 243.371 435.426L244.129 433.574ZM206.363 407.846L250.813 355.346L249.287 354.054L204.837 406.554L206.363 407.846ZM249.269 355.325C255.846 363.546 262.343 369.701 268.767 373.746L269.833 372.054C263.657 368.165 257.32 362.187 250.831 354.075L249.269 355.325ZM268.767 373.746C275.21 377.803 281.926 379.85 288.9 379.85V377.85C282.341 377.85 275.99 375.93 269.833 372.054L268.767 373.746ZM288.9 379.85C297.739 379.85 304.584 377.214 309.257 371.804L307.743 370.496C303.549 375.353 297.328 377.85 288.9 377.85V379.85ZM309.24 371.823C314.135 366.438 316.5 358.572 316.5 348.4H314.5C314.5 358.294 312.198 365.596 307.76 370.477L309.24 371.823ZM316.5 348.4V255.3H314.5V348.4H316.5ZM315.5 254.3H232.2V256.3H315.5V254.3ZM233.2 255.3V193H231.2V255.3H233.2ZM232.2 194H397.05V192H232.2V194ZM396.05 193V343.5H398.05V193H396.05ZM396.05 343.5C396.05 376.703 387.461 401.485 370.453 418.033L371.847 419.467C389.372 402.415 398.05 377.03 398.05 343.5H396.05ZM370.453 418.033C353.669 434.357 328.877 442.6 295.9 442.6V444.6C329.19 444.6 354.564 436.277 371.847 419.467L370.453 418.033Z" fill="url(#paint1_linear)"/>
</g>
<defs>
<filter id="filter0_ii" x="106.862" y="97.8" width="219.012" height="263.2" filterUnits="userSpaceOnUse" color-interpolation-filters="sRGB">
<feFlood flood-opacity="0" result="BackgroundImageFix"/>
<feBlend mode="normal" in="SourceGraphic" in2="BackgroundImageFix" result="shape"/>
<feColorMatrix in="SourceAlpha" type="matrix" values="0 0 0 0 0 0 0 0 0 0 0 0 0 0 0 0 0 0 127 0" result="hardAlpha"/>
<feOffset dx="6"/>
<feGaussianBlur stdDeviation="3"/>
<feComposite in2="hardAlpha" operator="arithmetic" k2="-1" k3="1"/>
<feColorMatrix type="matrix" values="0 0 0 0 0 0 0 0 0 0 0 0 0 0 0 0 0 0 0.25 0"/>
<feBlend mode="normal" in2="shape" result="effect1_innerShadow"/>
<feColorMatrix in="SourceAlpha" type="matrix" values="0 0 0 0 0 0 0 0 0 0 0 0 0 0 0 0 0 0 127 0" result="hardAlpha"/>
<feOffset dy="8"/>
<feGaussianBlur stdDeviation="3.5"/>
<feComposite in2="hardAlpha" operator="arithmetic" k2="-1" k3="1"/>
<feColorMatrix type="matrix" values="0 0 0 0 0 0 0 0 0 0 0 0 0 0 0 0 0 0 0.25 0"/>
<feBlend mode="normal" in2="effect1_innerShadow" result="effect2_innerShadow"/>
</filter>
<filter id="filter1_d" x="187.6" y="185" width="209.45" height="266.6" filterUnits="userSpaceOnUse" color-interpolation-filters="sRGB">
<feFlood flood-opacity="0" result="BackgroundImageFix"/>
<feColorMatrix in="SourceAlpha" type="matrix" values="0 0 0 0 0 0 0 0 0 0 0 0 0 0 0 0 0 0 127 0"/>
<feOffset dx="-10"/>
<feGaussianBlur stdDeviation="4"/>
<feColorMatrix type="matrix" values="0 0 0 0 0 0 0 0 0 0 0 0 0 0 0 0 0 0 0.4 0"/>
<feBlend mode="normal" in2="BackgroundImageFix" result="effect1_dropShadow"/>
<feBlend mode="normal" in="SourceGraphic" in2="effect1_dropShadow" result="shape"/>
</filter>
<linearGradient id="paint0_linear" x1="208" y1="0" x2="208" y2="378" gradientUnits="userSpaceOnUse">
<stop stop-color="white"/>
<stop offset="1" stop-color="white" stop-opacity="0"/>
</linearGradient>
<linearGradient id="paint1_linear" x1="313.5" y1="99" x2="313.5" y2="485" gradientUnits="userSpaceOnUse">
<stop stop-color="white" stop-opacity="0"/>
<stop offset="1" stop-color="white"/>
</linearGradient>
</defs>
</svg>
