<svg width="555" height="592" viewBox="0 0 555 592" fill="none" xmlns="http://www.w3.org/2000/svg">
<g filter="url(#filter0_d)">
<mask id="path-1-inside-1" fill="white">
<path fill-rule="evenodd" clip-rule="evenodd" d="M271.083 5.33139C272.961 1.78769 278.039 1.78769 279.917 5.33139L330.064 99.9078C331.829 103.238 329.416 107.25 325.646 107.25H291V399.734C285.132 415.797 280.05 433.113 276 451.726C271.946 433.146 266.865 415.86 261 399.824V107.25H225.354C221.584 107.25 219.171 103.238 220.936 99.9078L271.083 5.33139Z"/>
</mask>
<path fill-rule="evenodd" clip-rule="evenodd" d="M271.083 5.33139C272.961 1.78769 278.039 1.78769 279.917 5.33139L330.064 99.9078C331.829 103.238 329.416 107.25 325.646 107.25H291V399.734C285.132 415.797 280.05 433.113 276 451.726C271.946 433.146 266.865 415.86 261 399.824V107.25H225.354C221.584 107.25 219.171 103.238 220.936 99.9078L271.083 5.33139Z" fill="black"/>
<path d="M279.917 5.33139L191.568 52.1759L191.568 52.1759L279.917 5.33139ZM271.083 5.33139L182.733 -41.5132L182.733 -41.5131L271.083 5.33139ZM330.064 99.9078L241.714 146.752L241.714 146.752L330.064 99.9078ZM291 107.25V7.25001H191V107.25H291ZM291 399.734L384.929 434.046L391 417.427V399.734H291ZM276 451.726L178.298 473.042L373.713 472.989L276 451.726ZM261 399.824H161V417.536L167.084 434.171L261 399.824ZM261 107.25H361V7.25001H261V107.25ZM220.936 99.9078L132.587 53.0633L132.587 53.0633L220.936 99.9078ZM368.267 -41.5131C328.809 -115.931 222.191 -115.931 182.733 -41.5132L359.432 52.1759C323.732 119.506 227.268 119.506 191.568 52.1759L368.267 -41.5131ZM418.413 53.0633L368.267 -41.5131L191.568 52.1759L241.714 146.752L418.413 53.0633ZM325.646 207.25C404.801 207.25 455.493 122.996 418.413 53.0633L241.714 146.752C208.166 83.48 254.03 7.25001 325.646 7.25001V207.25ZM291 207.25H325.646V7.25001H291V207.25ZM391 399.734V107.25H191V399.734H391ZM373.713 472.989C376.806 458.777 380.628 445.821 384.929 434.046L197.071 365.422C189.637 385.772 183.295 407.45 178.287 430.463L373.713 472.989ZM167.084 434.171C171.383 445.926 175.204 458.857 178.298 473.042L373.702 430.411C368.689 407.436 362.347 385.794 354.916 365.477L167.084 434.171ZM161 107.25V399.824H361V107.25H161ZM225.354 207.25H261V7.25001H225.354V207.25ZM132.587 53.0633C95.5074 122.996 146.199 207.25 225.354 207.25V7.25001C296.97 7.25001 342.834 83.4799 309.286 146.752L132.587 53.0633ZM182.733 -41.5131L132.587 53.0633L309.286 146.752L359.432 52.1759L182.733 -41.5131Z" fill="url(#paint0_linear)" mask="url(#path-1-inside-1)"/>
</g>
<g filter="url(#filter1_d)">
<path d="M270.569 567.018C270.457 376.778 169.398 285.98 118.882 264.362" stroke="#9F9F9F" stroke-width="30"/>
<path d="M520.202 221.61C524.192 222.025 526.094 226.732 523.512 229.802L454.607 311.725C452.181 314.61 447.557 313.875 446.145 310.38L408.575 217.39C407.163 213.896 409.979 210.155 413.728 210.544L520.202 221.61Z" fill="black"/>
<path d="M27.6655 221.61C23.676 222.025 21.7741 226.732 24.3559 229.802L93.2605 311.725C95.6866 314.61 100.311 313.875 101.723 310.38L139.293 217.39C140.705 213.896 137.889 210.155 134.14 210.544L27.6655 221.61Z" fill="#9F9F9F"/>
<path d="M279.479 566.795C279.591 376.555 380.651 285.757 431.167 264.139" stroke="black" stroke-width="30" stroke-miterlimit="1.30541"/>
</g>
<defs>
<filter id="filter0_d" x="218.347" y="0.673615" width="122.306" height="461.053" filterUnits="userSpaceOnUse" color-interpolation-filters="sRGB">
<feFlood flood-opacity="0" result="BackgroundImageFix"/>
<feColorMatrix in="SourceAlpha" type="matrix" values="0 0 0 0 0 0 0 0 0 0 0 0 0 0 0 0 0 0 127 0"/>
<feOffset dx="4" dy="4"/>
<feGaussianBlur stdDeviation="3"/>
<feColorMatrix type="matrix" values="0 0 0 0 0 0 0 0 0 0 0 0 0 0 0 0 0 0 0.4 0"/>
<feBlend mode="normal" in2="BackgroundImageFix" result="effect1_dropShadow"/>
<feBlend mode="normal" in="SourceGraphic" in2="effect1_dropShadow" result="shape"/>
</filter>
<filter id="filter1_d" x="0.885712" y="171.573" width="554.096" height="419.861" filterUnits="userSpaceOnUse" color-interpolation-filters="sRGB">
<feFlood flood-opacity="0" result="BackgroundImageFix"/>
<feColorMatrix in="SourceAlpha" type="matrix" values="0 0 0 0 0 0 0 0 0 0 0 0 0 0 0 0 0 0 127 0"/>
<feOffset dx="4" dy="4"/>
<feGaussianBlur stdDeviation="3"/>
<feColorMatrix type="matrix" values="0 0 0 0 0 0 0 0 0 0 0 0 0 0 0 0 0 0 0.4 0"/>
<feBlend mode="normal" in2="BackgroundImageFix" result="effect1_dropShadow"/>
<feBlend mode="normal" in="SourceGraphic" in2="effect1_dropShadow" result="shape"/>
</filter>
<linearGradient id="paint0_linear" x1="275.5" y1="2.67361" x2="275.5" y2="451.726" gradientUnits="userSpaceOnUse">
<stop stop-color="#2F50FE"/>
<stop offset="1" stop-color="#F92121"/>
</linearGradient>
</defs>
</svg>
