<svg width="268" height="280" viewBox="0 0 268 280" fill="none" xmlns="http://www.w3.org/2000/svg">
<mask id="path-1-inside-1" fill="white">
<path fill-rule="evenodd" clip-rule="evenodd" d="M190.984 172.854C195.477 177.541 197.723 183.889 197.723 191.896C197.723 199.611 195.232 205.764 190.252 210.354C185.271 214.846 178.484 217.092 169.891 217.092C159.539 217.092 151.58 214.016 146.014 207.863C140.545 201.613 137.811 192.678 137.811 181.057H97.518L95.4954 183.079C95.8537 202.161 101.316 217.551 111.883 229.25C122.918 241.262 138.445 248.342 158.465 250.49V279.494H181.756V250.344C199.92 248.488 214.178 242.385 224.529 232.033C234.881 221.682 240.057 208.205 240.057 191.604C240.057 182.717 238.689 174.953 235.955 168.312C233.221 161.574 229.266 155.617 224.09 150.441C218.914 145.168 212.566 140.48 205.047 136.379C197.527 132.18 187.908 127.736 176.189 123.049C170.679 120.826 165.992 118.625 162.128 116.446L134.41 144.164C136.478 145.423 138.637 146.637 140.887 147.805C148.602 151.711 157.781 155.666 168.426 159.67C179.07 163.674 186.59 168.068 190.984 172.854ZM99.3201 155.213H69.8477V137.049H116.143C115.504 136.501 114.878 135.948 114.264 135.388C108.613 130.039 104.173 123.783 100.943 116.618C100.68 116.016 100.429 115.404 100.188 114.783H70.1406C72.157 93.2005 81.4836 79.8702 98.1203 74.7925C100.559 64.8829 105.385 56.3215 112.599 49.1084C117.105 44.6019 122.224 40.8718 127.956 37.9181C122.832 37.306 117.964 37 113.354 37C87.7676 37 67.2109 43.8359 51.6836 57.5078C36.2539 71.082 27.709 90.1738 26.0488 114.783H1V137.049H25.7559V155.213H1V177.479H25.7559C26.2601 193.362 29.7137 207.008 36.1166 218.416L70.3476 184.185C70.0936 182.044 69.9269 179.808 69.8477 177.479H77.0545L99.3201 155.213ZM120.651 133.882L149.269 105.264C147.001 101.419 145.867 96.8 145.867 91.4082C145.867 83.4004 148.064 77.1504 152.459 72.6582C156.854 68.0684 163.055 65.7734 171.062 65.7734C176.409 65.7734 181.033 67.0482 184.935 69.5977L212.139 42.3942C204.42 37.3911 195.318 34.149 184.832 32.668V0.880859H161.395V32.2285C143.914 33.9863 129.9 40.1387 119.354 50.6855C108.807 61.2324 103.533 74.7578 103.533 91.2617C103.533 100.832 105.047 109.084 108.074 116.018C111.139 122.818 115.331 128.773 120.651 133.882ZM224.874 53.7003L195.238 83.337C196.894 88.1418 197.723 93.9572 197.723 100.783H240.057C240.057 81.7402 235.174 66.2617 225.408 54.3477C225.231 54.1303 225.054 53.9145 224.874 53.7003ZM101.096 177.479L118.92 159.655V177.479H101.096ZM75.9092 202.665L46.3385 232.236C47.305 233.248 48.3055 234.233 49.3398 235.193C64.3789 248.963 84.7402 255.848 110.424 255.848C120.423 255.848 130.188 254.996 139.717 253.291C125.321 249.791 113.708 243.236 104.879 233.625C100.636 228.927 97.1888 223.653 94.5386 217.803C89.1912 215.998 84.7695 213.348 81.2734 209.852C79.2061 207.756 77.418 205.361 75.9092 202.665Z"/>
</mask>
<path fill-rule="evenodd" clip-rule="evenodd" d="M190.984 172.854C195.477 177.541 197.723 183.889 197.723 191.896C197.723 199.611 195.232 205.764 190.252 210.354C185.271 214.846 178.484 217.092 169.891 217.092C159.539 217.092 151.58 214.016 146.014 207.863C140.545 201.613 137.811 192.678 137.811 181.057H97.518L95.4954 183.079C95.8537 202.161 101.316 217.551 111.883 229.25C122.918 241.262 138.445 248.342 158.465 250.49V279.494H181.756V250.344C199.92 248.488 214.178 242.385 224.529 232.033C234.881 221.682 240.057 208.205 240.057 191.604C240.057 182.717 238.689 174.953 235.955 168.312C233.221 161.574 229.266 155.617 224.09 150.441C218.914 145.168 212.566 140.48 205.047 136.379C197.527 132.18 187.908 127.736 176.189 123.049C170.679 120.826 165.992 118.625 162.128 116.446L134.41 144.164C136.478 145.423 138.637 146.637 140.887 147.805C148.602 151.711 157.781 155.666 168.426 159.67C179.07 163.674 186.59 168.068 190.984 172.854ZM99.3201 155.213H69.8477V137.049H116.143C115.504 136.501 114.878 135.948 114.264 135.388C108.613 130.039 104.173 123.783 100.943 116.618C100.68 116.016 100.429 115.404 100.188 114.783H70.1406C72.157 93.2005 81.4836 79.8702 98.1203 74.7925C100.559 64.8829 105.385 56.3215 112.599 49.1084C117.105 44.6019 122.224 40.8718 127.956 37.9181C122.832 37.306 117.964 37 113.354 37C87.7676 37 67.2109 43.8359 51.6836 57.5078C36.2539 71.082 27.709 90.1738 26.0488 114.783H1V137.049H25.7559V155.213H1V177.479H25.7559C26.2601 193.362 29.7137 207.008 36.1166 218.416L70.3476 184.185C70.0936 182.044 69.9269 179.808 69.8477 177.479H77.0545L99.3201 155.213ZM120.651 133.882L149.269 105.264C147.001 101.419 145.867 96.8 145.867 91.4082C145.867 83.4004 148.064 77.1504 152.459 72.6582C156.854 68.0684 163.055 65.7734 171.062 65.7734C176.409 65.7734 181.033 67.0482 184.935 69.5977L212.139 42.3942C204.42 37.3911 195.318 34.149 184.832 32.668V0.880859H161.395V32.2285C143.914 33.9863 129.9 40.1387 119.354 50.6855C108.807 61.2324 103.533 74.7578 103.533 91.2617C103.533 100.832 105.047 109.084 108.074 116.018C111.139 122.818 115.331 128.773 120.651 133.882ZM224.874 53.7003L195.238 83.337C196.894 88.1418 197.723 93.9572 197.723 100.783H240.057C240.057 81.7402 235.174 66.2617 225.408 54.3477C225.231 54.1303 225.054 53.9145 224.874 53.7003ZM101.096 177.479L118.92 159.655V177.479H101.096ZM75.9092 202.665L46.3385 232.236C47.305 233.248 48.3055 234.233 49.3398 235.193C64.3789 248.963 84.7402 255.848 110.424 255.848C120.423 255.848 130.188 254.996 139.717 253.291C125.321 249.791 113.708 243.236 104.879 233.625C100.636 228.927 97.1888 223.653 94.5386 217.803C89.1912 215.998 84.7695 213.348 81.2734 209.852C79.2061 207.756 77.418 205.361 75.9092 202.665Z" fill="#DBDBDB" fill-opacity="0.77"/>
<path d="M190.984 172.854L188.775 174.883L188.796 174.906L188.818 174.929L190.984 172.854ZM190.252 210.354L192.261 212.581L192.273 212.57L192.285 212.56L190.252 210.354ZM146.014 207.863L143.756 209.839L143.772 209.858L143.789 209.876L146.014 207.863ZM137.811 181.057H140.811V178.057H137.811V181.057ZM97.518 181.057V178.057H96.2754L95.3967 178.935L97.518 181.057ZM95.4954 183.079L93.3741 180.958L92.472 181.86L92.4959 183.136L95.4954 183.079ZM111.883 229.25L109.657 231.261L109.665 231.27L109.674 231.28L111.883 229.25ZM158.465 250.49H161.465V247.795L158.785 247.507L158.465 250.49ZM158.465 279.494H155.465V282.494H158.465V279.494ZM181.756 279.494V282.494H184.756V279.494H181.756ZM181.756 250.344L181.451 247.359L178.756 247.635V250.344H181.756ZM235.955 168.312L233.175 169.441L233.178 169.448L233.181 169.455L235.955 168.312ZM224.09 150.441L221.949 152.543L221.959 152.553L221.969 152.563L224.09 150.441ZM205.047 136.379L203.584 138.998L203.597 139.005L203.61 139.013L205.047 136.379ZM176.189 123.049L175.067 125.831L175.075 125.834L176.189 123.049ZM162.128 116.446L163.602 113.833L161.618 112.714L160.007 114.325L162.128 116.446ZM134.41 144.164L132.289 142.043L129.591 144.741L132.85 146.726L134.41 144.164ZM140.887 147.805L139.505 150.467L139.518 150.474L139.532 150.481L140.887 147.805ZM99.3201 155.213L101.441 157.334L106.563 152.213H99.3201V155.213ZM69.8477 155.213H66.8477V158.213H69.8477V155.213ZM69.8477 137.049V134.049H66.8477V137.049H69.8477ZM116.143 137.049V140.049H124.258L118.095 134.77L116.143 137.049ZM114.264 135.388L112.202 137.567L112.221 137.585L112.242 137.604L114.264 135.388ZM100.943 116.618L98.194 117.819L98.2011 117.835L98.2083 117.851L100.943 116.618ZM100.188 114.783L102.985 113.699L102.243 111.783H100.188V114.783ZM70.1406 114.783L67.1536 114.504L66.8473 117.783H70.1406V114.783ZM98.1203 74.7925L98.996 77.6618L100.626 77.1643L101.033 75.5095L98.1203 74.7925ZM112.599 49.1084L110.477 46.9871V46.9871L112.599 49.1084ZM127.956 37.9181L129.33 40.5849L138.032 36.1005L128.312 34.9393L127.956 37.9181ZM51.6836 57.5078L53.6652 59.7602L53.6661 59.7594L51.6836 57.5078ZM26.0488 114.783V117.783H28.8533L29.042 114.985L26.0488 114.783ZM1 114.783V111.783H-2V114.783H1ZM1 137.049H-2V140.049H1V137.049ZM25.7559 137.049H28.7559V134.049H25.7559V137.049ZM25.7559 155.213V158.213H28.7559V155.213H25.7559ZM1 155.213V152.213H-2V155.213H1ZM1 177.479H-2V180.479H1V177.479ZM25.7559 177.479L28.7543 177.383L28.6621 174.479H25.7559V177.479ZM36.1166 218.416L33.5004 219.885L35.4382 223.337L38.2379 220.538L36.1166 218.416ZM70.3476 184.185L72.469 186.307L73.4982 185.277L73.3268 183.832L70.3476 184.185ZM69.8477 177.479V174.479H66.7439L66.8494 177.58L69.8477 177.479ZM77.0545 177.479V180.479H78.2971L79.1758 179.6L77.0545 177.479ZM120.651 133.882L118.573 136.046L120.693 138.083L122.772 136.004L120.651 133.882ZM149.269 105.264L151.39 107.386L153.033 105.742L151.853 103.74L149.269 105.264ZM152.459 72.6582L154.603 74.7561L154.615 74.7446L154.626 74.7329L152.459 72.6582ZM184.935 69.5977L183.294 72.1091L185.334 73.4417L187.057 71.719L184.935 69.5977ZM212.139 42.3942L214.26 44.5155L216.882 41.8936L213.771 39.8768L212.139 42.3942ZM184.832 32.668H181.832V35.274L184.412 35.6385L184.832 32.668ZM184.832 0.880859H187.832V-2.11914H184.832V0.880859ZM161.395 0.880859V-2.11914H158.395V0.880859H161.395ZM161.395 32.2285L161.695 35.2135L164.395 34.942V32.2285H161.395ZM108.074 116.018L105.325 117.218L105.332 117.234L105.339 117.25L108.074 116.018ZM224.874 53.7003L227.176 51.7755L225.072 49.2603L222.753 51.579L224.874 53.7003ZM195.238 83.337L193.116 81.2157L191.79 82.5418L192.401 84.3149L195.238 83.337ZM197.723 100.783H194.723V103.783H197.723V100.783ZM240.057 100.783V103.783H243.057V100.783H240.057ZM225.408 54.3477L223.08 56.2402L223.088 56.2494L225.408 54.3477ZM118.92 159.655H121.92V152.412L116.799 157.533L118.92 159.655ZM101.096 177.479L98.9748 175.357L93.8535 180.479H101.096V177.479ZM118.92 177.479V180.479H121.92V177.479H118.92ZM75.9092 202.665L78.5269 201.2L76.5906 197.741L73.7879 200.544L75.9092 202.665ZM46.3385 232.236L44.2172 230.115L42.1436 232.188L44.1695 234.309L46.3385 232.236ZM49.3398 235.193L47.299 237.392L47.3065 237.399L47.314 237.406L49.3398 235.193ZM139.717 253.291L140.245 256.245L140.426 250.376L139.717 253.291ZM104.879 233.625L102.653 235.636L102.661 235.645L102.67 235.655L104.879 233.625ZM94.5386 217.803L97.2713 216.565L96.7333 215.377L95.4979 214.96L94.5386 217.803ZM81.2734 209.852L79.1377 211.958L79.1449 211.966L79.1521 211.973L81.2734 209.852ZM200.723 191.896C200.723 183.305 198.296 176.148 193.15 170.778L188.818 174.929C192.657 178.934 194.723 184.472 194.723 191.896H200.723ZM192.285 212.56C197.97 207.32 200.723 200.321 200.723 191.896H194.723C194.723 198.902 192.495 204.207 188.219 208.147L192.285 212.56ZM169.891 220.092C179.011 220.092 186.588 217.698 192.261 212.581L188.243 208.126C183.955 211.993 177.958 214.092 169.891 214.092V220.092ZM143.789 209.876C150.06 216.807 158.917 220.092 169.891 220.092V214.092C160.161 214.092 153.1 211.225 148.238 205.851L143.789 209.876ZM134.811 181.057C134.811 193.116 137.648 202.858 143.756 209.839L148.271 205.888C143.442 200.369 140.811 192.24 140.811 181.057H134.811ZM97.518 184.057H137.811V178.057H97.518V184.057ZM95.3967 178.935L93.3741 180.958L97.6167 185.201L99.6393 183.178L95.3967 178.935ZM114.109 227.239C104.125 216.185 98.8426 201.54 98.4949 183.023L92.4959 183.136C92.8648 202.781 98.5077 218.918 109.657 231.261L114.109 227.239ZM158.785 247.507C139.313 245.418 124.526 238.578 114.092 227.22L109.674 231.28C121.31 243.946 137.577 251.266 158.145 253.473L158.785 247.507ZM161.465 279.494V250.49H155.465V279.494H161.465ZM181.756 276.494H158.465V282.494H181.756V276.494ZM178.756 250.344V279.494H184.756V250.344H178.756ZM222.408 229.912C212.656 239.664 199.103 245.556 181.451 247.359L182.061 253.328C200.737 251.42 215.7 245.105 226.651 234.155L222.408 229.912ZM237.057 191.604C237.057 207.526 232.12 220.2 222.408 229.912L226.651 234.155C237.642 223.163 243.057 208.885 243.057 191.604H237.057ZM233.181 169.455C235.735 175.658 237.057 183.019 237.057 191.604H243.057C243.057 182.415 241.644 174.248 238.729 167.17L233.181 169.455ZM221.969 152.563C226.863 157.457 230.593 163.077 233.175 169.441L238.735 167.184C235.849 160.072 231.669 153.778 226.211 148.32L221.969 152.563ZM203.61 139.013C210.91 142.994 217.01 147.511 221.949 152.543L226.231 148.34C220.818 142.825 214.222 137.966 206.483 133.745L203.61 139.013ZM175.075 125.834C186.724 130.494 196.216 134.883 203.584 138.998L206.51 133.76C198.839 129.476 189.092 124.979 177.304 120.263L175.075 125.834ZM160.655 119.06C164.662 121.32 169.474 123.575 175.067 125.831L177.312 120.267C171.884 118.077 167.321 115.931 163.602 113.833L160.655 119.06ZM160.007 114.325L132.289 142.043L136.532 146.286L164.249 118.568L160.007 114.325ZM142.269 145.142C140.076 144.004 137.977 142.824 135.971 141.602L132.85 146.726C134.978 148.023 137.197 149.27 139.505 150.467L142.269 145.142ZM169.482 156.862C158.91 152.885 149.835 148.973 142.242 145.128L139.532 150.481C147.368 154.449 156.653 158.447 167.37 162.478L169.482 156.862ZM193.194 170.824C188.325 165.523 180.283 160.925 169.482 156.862L167.37 162.478C177.858 166.423 184.854 170.614 188.775 174.883L193.194 170.824ZM99.3201 152.213H69.8477V158.213H99.3201V152.213ZM72.8477 155.213V137.049H66.8477V155.213H72.8477ZM69.8477 140.049H116.143V134.049H69.8477V140.049ZM118.095 134.77C117.479 134.243 116.876 133.71 116.286 133.171L112.242 137.604C112.879 138.185 113.529 138.76 114.192 139.327L118.095 134.77ZM116.326 133.209C110.961 128.132 106.749 122.198 103.678 115.385L98.2083 117.851C101.596 125.368 106.264 131.947 112.202 137.567L116.326 133.209ZM103.693 115.418C103.447 114.855 103.211 114.282 102.985 113.699L97.3906 115.867C97.6463 116.527 97.9141 117.178 98.194 117.819L103.693 115.418ZM100.188 111.783H70.1406V117.783H100.188V111.783ZM73.1276 115.062C74.103 104.623 76.8239 96.4385 81.1059 90.3183C85.3575 84.2416 91.2713 80.0195 98.996 77.6618L97.2445 71.9231C88.3325 74.6432 81.2647 79.6251 76.1897 86.8786C71.1452 94.0887 68.1947 103.361 67.1536 114.504L73.1276 115.062ZM101.033 75.5095C103.342 66.1312 107.894 58.0556 114.72 51.2297L110.477 46.9871C102.877 54.5875 97.7771 63.6346 95.2072 74.0755L101.033 75.5095ZM114.72 51.2297C119.005 46.9451 123.871 43.3981 129.33 40.5849L126.582 35.2514C120.578 38.3454 115.206 42.2586 110.477 46.9871L114.72 51.2297ZM128.312 34.9393C123.083 34.3147 118.096 34 113.354 34V40C117.832 40 122.58 40.2973 127.6 40.897L128.312 34.9393ZM113.354 34C87.2174 34 65.8975 40.9952 49.7011 55.2562L53.6661 59.7594C68.5243 46.6767 88.3177 40 113.354 40V34ZM49.702 55.2554C33.5615 69.455 24.7577 89.3508 23.0556 114.581L29.042 114.985C30.6603 90.9968 38.9464 72.709 53.6652 59.7602L49.702 55.2554ZM26.0488 111.783H1V117.783H26.0488V111.783ZM-2 114.783V137.049H4V114.783H-2ZM1 140.049H25.7559V134.049H1V140.049ZM22.7559 137.049V155.213H28.7559V137.049H22.7559ZM25.7559 152.213H1V158.213H25.7559V152.213ZM-2 155.213V177.479H4V155.213H-2ZM1 180.479H25.7559V174.479H1V180.479ZM22.7574 177.574C23.2737 193.837 26.8162 207.975 33.5004 219.885L38.7327 216.948C32.6112 206.041 29.2465 192.887 28.7543 177.383L22.7574 177.574ZM38.2379 220.538L72.469 186.307L68.2263 182.064L33.9952 216.295L38.2379 220.538ZM73.3268 183.832C73.0833 181.78 72.9225 179.629 72.8459 177.377L66.8494 177.58C66.9313 179.987 67.1038 182.307 67.3685 184.539L73.3268 183.832ZM69.8477 180.479H77.0545V174.479H69.8477V180.479ZM79.1758 179.6L101.441 157.334L97.1988 153.092L74.9332 175.357L79.1758 179.6ZM122.772 136.004L151.39 107.386L147.147 103.143L118.529 131.761L122.772 136.004ZM142.867 91.4082C142.867 97.2245 144.093 102.393 146.685 106.788L151.853 103.74C149.909 100.444 148.867 96.3754 148.867 91.4082H142.867ZM150.314 70.5603C145.232 75.7556 142.867 82.8411 142.867 91.4082H148.867C148.867 83.9597 150.897 78.5451 154.603 74.7561L150.314 70.5603ZM171.062 62.7734C162.462 62.7734 155.392 65.2572 150.292 70.5835L154.626 74.7329C158.315 70.8795 163.647 68.7734 171.062 68.7734V62.7734ZM186.576 67.0863C182.118 64.173 176.904 62.7734 171.062 62.7734V68.7734C175.914 68.7734 179.949 69.9234 183.294 72.1091L186.576 67.0863ZM187.057 71.719L214.26 44.5155L210.018 40.2729L182.814 67.4764L187.057 71.719ZM184.412 35.6385C194.531 37.0677 203.206 40.1793 210.507 44.9116L213.771 39.8768C205.634 34.6029 196.105 31.2303 185.252 29.6975L184.412 35.6385ZM181.832 0.880859V32.668H187.832V0.880859H181.832ZM161.395 3.88086H184.832V-2.11914H161.395V3.88086ZM164.395 32.2285V0.880859H158.395V32.2285H164.395ZM121.475 52.8069C131.449 42.8331 144.775 36.9149 161.695 35.2135L161.094 29.2436C143.053 31.0577 128.352 37.4442 117.232 48.5642L121.475 52.8069ZM106.533 91.2617C106.533 75.4605 111.553 62.7287 121.475 52.8069L117.232 48.5642C106.06 59.7362 100.533 74.0551 100.533 91.2617H106.533ZM110.824 114.817C107.999 108.348 106.533 100.525 106.533 91.2617H100.533C100.533 101.14 102.095 109.82 105.325 117.218L110.824 114.817ZM122.729 131.719C117.689 126.878 113.719 121.24 110.809 114.785L105.339 117.25C108.56 124.396 112.974 130.668 118.573 136.046L122.729 131.719ZM222.753 51.579L193.116 81.2157L197.359 85.4583L226.996 55.8216L222.753 51.579ZM200.723 100.783C200.723 93.7312 199.869 87.5657 198.074 82.3591L192.401 84.3149C193.92 88.7179 194.723 94.1833 194.723 100.783H200.723ZM240.057 97.7832H197.723V103.783H240.057V97.7832ZM223.088 56.2494C232.318 67.5098 237.057 82.265 237.057 100.783H243.057C243.057 81.2155 238.03 65.0136 227.728 52.4459L223.088 56.2494ZM222.573 55.625C222.743 55.8285 222.912 56.0336 223.08 56.2401L227.736 52.4552C227.55 52.227 227.364 52.0005 227.176 51.7755L222.573 55.625ZM116.799 157.533L98.9748 175.357L103.217 179.6L121.041 161.776L116.799 157.533ZM121.92 177.479V159.655H115.92V177.479H121.92ZM101.096 180.479H118.92V174.479H101.096V180.479ZM73.7879 200.544L44.2172 230.115L48.4598 234.357L78.0305 204.787L73.7879 200.544ZM44.1695 234.309C45.1778 235.364 46.2211 236.392 47.299 237.392L51.3806 232.994C50.3899 232.075 49.4322 231.131 48.5075 230.164L44.1695 234.309ZM47.314 237.406C63.0392 251.804 84.1927 258.848 110.424 258.848V252.848C85.2878 252.848 65.7186 246.122 51.3657 232.981L47.314 237.406ZM110.424 258.848C120.594 258.848 130.536 257.981 140.245 256.245L139.189 250.338C129.839 252.01 120.252 252.848 110.424 252.848V258.848ZM140.426 250.376C126.526 246.997 115.463 240.712 107.088 231.595L102.67 235.655C111.953 245.76 124.116 252.586 139.008 256.207L140.426 250.376ZM107.105 231.614C103.073 227.149 99.7955 222.137 97.2713 216.565L91.8059 219.041C94.5821 225.169 98.1985 230.705 102.653 235.636L107.105 231.614ZM95.4979 214.96C90.5261 213.282 86.5207 210.856 83.3948 207.73L79.1521 211.973C83.0183 215.839 87.8564 218.714 93.5793 220.645L95.4979 214.96ZM83.4091 207.745C81.5396 205.85 79.911 203.672 78.5269 201.2L73.2915 204.131C74.9251 207.049 76.8727 209.662 79.1377 211.958L83.4091 207.745Z" fill="black" mask="url(#path-1-inside-1)"/>
<rect x="249.383" y="13.6167" width="21.9203" height="348.981" transform="rotate(45 249.383 13.6167)" fill="black" stroke="black" stroke-width="3" stroke-linecap="round" stroke-linejoin="round"/>
</svg>
