<svg width="610" height="610" viewBox="0 0 610 610" fill="none" xmlns="http://www.w3.org/2000/svg">
<mask id="path-1-inside-1" fill="white">
<path fill-rule="evenodd" clip-rule="evenodd" d="M138 168L0 304.832L138 441.664V386.138L56 304.832L138 223.526V168Z"/>
</mask>
<path fill-rule="evenodd" clip-rule="evenodd" d="M138 168L0 304.832L138 441.664V386.138L56 304.832L138 223.526V168Z" fill="#DBDBDB" fill-opacity="0.74"/>
<path d="M0 304.832L-2.11229 302.702L-4.26079 304.832L-2.11229 306.962L0 304.832ZM138 168H141V160.801L135.888 165.87L138 168ZM138 441.664L135.888 443.794L141 448.863V441.664H138ZM138 386.138H141V384.888L140.112 384.008L138 386.138ZM56 304.832L53.8877 302.702L51.7392 304.832L53.8877 306.962L56 304.832ZM138 223.526L140.112 225.656L141 224.776V223.526H138ZM2.11229 306.962L140.112 170.13L135.888 165.87L-2.11229 302.702L2.11229 306.962ZM140.112 439.534L2.11229 302.702L-2.11229 306.962L135.888 443.794L140.112 439.534ZM135 386.138V441.664H141V386.138H135ZM140.112 384.008L58.1123 302.702L53.8877 306.962L135.888 388.268L140.112 384.008ZM58.1123 306.962L140.112 225.656L135.888 221.396L53.8877 302.702L58.1123 306.962ZM135 168V223.526H141V168H135Z" fill="black" mask="url(#path-1-inside-1)"/>
<mask id="path-3-inside-2" fill="white">
<path fill-rule="evenodd" clip-rule="evenodd" d="M441.664 138L304.832 0L168 138H223.526L304.832 56L386.138 138H441.664Z"/>
</mask>
<path fill-rule="evenodd" clip-rule="evenodd" d="M441.664 138L304.832 0L168 138H223.526L304.832 56L386.138 138H441.664Z" fill="#DBDBDB" fill-opacity="0.74"/>
<path d="M304.832 0L306.962 -2.11229L304.832 -4.26079L302.702 -2.11229L304.832 0ZM441.664 138V141H448.863L443.794 135.888L441.664 138ZM168 138L165.87 135.888L160.801 141H168V138ZM223.526 138V141H224.776L225.656 140.112L223.526 138ZM304.832 56L306.962 53.8877L304.832 51.7392L302.702 53.8877L304.832 56ZM386.138 138L384.008 140.112L384.888 141H386.138V138ZM302.702 2.11229L439.534 140.112L443.794 135.888L306.962 -2.11229L302.702 2.11229ZM170.13 140.112L306.962 2.11229L302.702 -2.11229L165.87 135.888L170.13 140.112ZM223.526 135H168V141H223.526V135ZM225.656 140.112L306.962 58.1123L302.702 53.8877L221.396 135.888L225.656 140.112ZM302.702 58.1123L384.008 140.112L388.268 135.888L306.962 53.8877L302.702 58.1123ZM441.664 135H386.138V141H441.664V135Z" fill="black" mask="url(#path-3-inside-2)"/>
<mask id="path-5-inside-3" fill="white">
<path fill-rule="evenodd" clip-rule="evenodd" d="M168 472L304.832 610L441.664 472H386.138L304.832 554L223.526 472H168Z"/>
</mask>
<path fill-rule="evenodd" clip-rule="evenodd" d="M168 472L304.832 610L441.664 472H386.138L304.832 554L223.526 472H168Z" fill="#DBDBDB" fill-opacity="0.74"/>
<path d="M304.832 610L302.702 612.112L304.832 614.261L306.962 612.112L304.832 610ZM168 472V469H160.801L165.87 474.112L168 472ZM441.664 472L443.794 474.112L448.863 469H441.664V472ZM386.138 472V469H384.888L384.008 469.888L386.138 472ZM304.832 554L302.702 556.112L304.832 558.261L306.962 556.112L304.832 554ZM223.526 472L225.656 469.888L224.776 469H223.526V472ZM306.962 607.888L170.13 469.888L165.87 474.112L302.702 612.112L306.962 607.888ZM439.534 469.888L302.702 607.888L306.962 612.112L443.794 474.112L439.534 469.888ZM386.138 475H441.664V469H386.138V475ZM384.008 469.888L302.702 551.888L306.962 556.112L388.268 474.112L384.008 469.888ZM306.962 551.888L225.656 469.888L221.396 474.112L302.702 556.112L306.962 551.888ZM168 475H223.526V469H168V475Z" fill="black" mask="url(#path-5-inside-3)"/>
<mask id="path-7-inside-4" fill="white">
<path fill-rule="evenodd" clip-rule="evenodd" d="M472 441.664L610 304.832L472 168V223.526L554 304.832L472 386.138V441.664Z"/>
</mask>
<path fill-rule="evenodd" clip-rule="evenodd" d="M472 441.664L610 304.832L472 168V223.526L554 304.832L472 386.138V441.664Z" fill="#DBDBDB" fill-opacity="0.74"/>
<path d="M610 304.832L612.112 306.962L614.261 304.832L612.112 302.702L610 304.832ZM472 441.664H469V448.863L474.112 443.794L472 441.664ZM472 168L474.112 165.87L469 160.801V168H472ZM472 223.526H469V224.776L469.888 225.656L472 223.526ZM554 304.832L556.112 306.962L558.261 304.832L556.112 302.702L554 304.832ZM472 386.138L469.888 384.008L469 384.888V386.138H472ZM607.888 302.702L469.888 439.534L474.112 443.794L612.112 306.962L607.888 302.702ZM469.888 170.13L607.888 306.962L612.112 302.702L474.112 165.87L469.888 170.13ZM475 223.526V168H469V223.526H475ZM469.888 225.656L551.888 306.962L556.112 302.702L474.112 221.396L469.888 225.656ZM551.888 302.702L469.888 384.008L474.112 388.268L556.112 306.962L551.888 302.702ZM475 441.664V386.138H469V441.664H475Z" fill="black" mask="url(#path-7-inside-4)"/>
<circle cx="305" cy="305" r="98.5" fill="#DBDBDB" fill-opacity="0.74" stroke="black" stroke-width="3"/>
</svg>
