<svg width="264" height="280" viewBox="0 0 264 280" fill="none" xmlns="http://www.w3.org/2000/svg">
<path fill-rule="evenodd" clip-rule="evenodd" d="M189.984 172.854C194.477 177.541 196.723 183.889 196.723 191.896C196.723 199.611 194.232 205.764 189.252 210.354C184.271 214.846 177.484 217.092 168.891 217.092C158.539 217.092 150.58 214.016 145.014 207.863C139.545 201.613 136.811 192.678 136.811 181.057H96.518L94.4954 183.079C94.8537 202.161 100.316 217.551 110.883 229.25C121.918 241.262 137.445 248.342 157.465 250.49V279.494H180.756V250.344C198.92 248.488 213.178 242.385 223.529 232.033C233.881 221.682 239.057 208.205 239.057 191.604C239.057 182.717 237.689 174.953 234.955 168.312C232.221 161.574 228.266 155.617 223.09 150.441C217.914 145.168 211.566 140.48 204.047 136.379C196.527 132.18 186.908 127.736 175.189 123.049C169.679 120.826 164.992 118.625 161.128 116.446L133.41 144.164C135.478 145.423 137.637 146.637 139.887 147.805C147.602 151.711 156.781 155.666 167.426 159.67C178.07 163.674 185.59 168.068 189.984 172.854ZM98.3201 155.213H68.8477V137.049H115.143C114.504 136.501 113.878 135.948 113.264 135.388C107.613 130.039 103.173 123.783 99.9434 116.618C99.6805 116.016 99.4287 115.404 99.1879 114.783H69.1406C71.157 93.2005 80.4836 79.8702 97.1203 74.7925C99.5594 64.8829 104.385 56.3215 111.599 49.1084C116.105 44.6019 121.224 40.8718 126.956 37.9181C121.832 37.306 116.964 37 112.354 37C86.7676 37 66.2109 43.8359 50.6836 57.5078C35.2539 71.082 26.709 90.1738 25.0488 114.783H0V137.049H24.7559V155.213H0V177.479H24.7559C25.2601 193.362 28.7137 207.008 35.1166 218.416L69.3476 184.185C69.0936 182.044 68.9269 179.808 68.8477 177.479H76.0545L98.3201 155.213ZM119.651 133.882L148.269 105.264C146.001 101.419 144.867 96.8 144.867 91.4082C144.867 83.4004 147.064 77.1504 151.459 72.6582C155.854 68.0684 162.055 65.7734 170.062 65.7734C175.409 65.7734 180.033 67.0482 183.935 69.5977L211.139 42.3942C203.42 37.3911 194.318 34.149 183.832 32.668V0.880859H160.395V32.2285C142.914 33.9863 128.9 40.1387 118.354 50.6855C107.807 61.2324 102.533 74.7578 102.533 91.2617C102.533 100.832 104.047 109.084 107.074 116.018C110.139 122.818 114.331 128.773 119.651 133.882ZM223.874 53.7003L194.238 83.337C195.894 88.1418 196.723 93.9572 196.723 100.783H239.057C239.057 81.7402 234.174 66.2617 224.408 54.3477C224.231 54.1303 224.054 53.9145 223.874 53.7003ZM100.096 177.479L117.92 159.655V177.479H100.096ZM74.9092 202.665L45.3385 232.236C46.305 233.248 47.3055 234.233 48.3398 235.193C63.3789 248.963 83.7402 255.848 109.424 255.848C119.423 255.848 129.188 254.996 138.717 253.291C124.321 249.791 112.708 243.236 103.879 233.625C99.6356 228.927 96.1888 223.653 93.5386 217.803C88.1912 215.998 83.7695 213.348 80.2734 209.852C78.2061 207.756 76.418 205.361 74.9092 202.665Z" fill="#878787"/>
<rect x="251.533" y="14.0104" width="8.5" height="340.481" transform="rotate(45 251.533 14.0104)" stroke="url(#paint0_linear)" stroke-width="8.5"/>
<defs>
<linearGradient id="paint0_linear" x1="260.033" y1="8" x2="260.033" y2="356.981" gradientUnits="userSpaceOnUse">
<stop stop-color="#2F50FE"/>
<stop offset="1" stop-color="#F92121"/>
</linearGradient>
</defs>
</svg>
